<?xml version="1.0" encoding="utf-8"?>
<!-- Generator: Adobe Illustrator 23.0.1, SVG Export Plug-In . SVG Version: 6.00 Build 0)  -->
<svg version="1.1" id="Layer_1" xmlns="http://www.w3.org/2000/svg" xmlns:xlink="http://www.w3.org/1999/xlink" x="0px" y="0px"
	 viewBox="0 0 100 100" style="enable-background:new 0 0 100 100;" xml:space="preserve">
<style type="text/css">
	.st0{fill:#9B4F37;stroke:#020202;stroke-width:50;stroke-miterlimit:10;}
	.st1{fill:#FFFFFF;stroke:#020202;stroke-width:4;stroke-miterlimit:10;}
	.st2{fill:url(#SVGID_1_);}
	.st3{fill:#FFFFFF;}
	.st4{fill:none;stroke:#000000;stroke-width:1.5;stroke-miterlimit:10;}
	.st5{fill:#9B4F37;stroke:#000000;stroke-width:2;stroke-miterlimit:10;}
	.st6{fill:#553C35;}
	.st7{fill:#B56530;stroke:#000000;stroke-width:2;stroke-miterlimit:10;}
</style>
<path class="st0" d="M27.2,53.8"/>
<path class="st0" d="M27.2,53.8"/>
<path class="st1" d="M95.5,63c0,9-2.7,16.3-7.2,21.8c-3.1,3.7-7,1.4-11.6,3.6c-5.6,2.7-12,4.3-19.1,5c0,0,0,0,0,0
	c-1.9,0.4-4.3,0.6-7.1,0.6c-2.7,0-4.9-0.2-6.8-0.6c-7-0.6-13.6-2.1-19.2-4.7c-4.4-2.1-8.3,0.5-11.4-2.9C7.9,80.3,4.9,72.7,4.9,63
	c0-7.5,1.8-23.8,5.1-30.1l2.5-4.3c-0.9,1.4-1.8,2.8-2.5,4.3c-3-5.5-5.1-10.6-5.1-12.9c0-3.3-0.6-8.3,1.6-10.4c2.1-1.9,6.8-1,9.9-1
	c2.3,0,7.2,2.1,12.7,5.1c-1.5,0.8-3,1.7-4.3,2.6l4.4-2.6c6.3-3.3,13.5-5.2,21.1-5.2c7.5,0,14.6,1.8,20.9,5.1c0,0,0,0,0,0
	c5.3-2.9,10.2-5,12.4-5c3,0,7.8-0.9,9.9,1c2.2,2.1,1.6,7.1,1.6,10.4c0,2.2-2,7.1-4.8,12.4c0,0,0,0,0,0C93.5,38.9,95.5,55.4,95.5,63z
	"/>
<g>
	<linearGradient id="SVGID_1_" gradientUnits="userSpaceOnUse" x1="50.238" y1="84.6517" x2="50.9469" y2="25.34">
		<stop  offset="0" style="stop-color:#9B4F37"/>
		<stop  offset="1" style="stop-color:#B56530"/>
	</linearGradient>
	<path class="st2" d="M85.1,52.3c4.3,0,6.7,20.5,3.4,32.6c4.6-5.5,7.2-12.7,7.2-21.8c0-7.7-1.9-24.1-5.3-30.5
		c-0.9-1.6-1.8-3.2-2.9-4.7c-3.1-4.4-6.8-8.1-11.2-11.2c-1.6-1.1-3.3-2.1-5-3C65.1,10.4,58,8.6,50.5,8.6c-7.6,0-14.8,1.9-21.1,5.2
		l-5,3c-4.4,3.1-8.2,6.9-11.2,11.3l-2.9,5C7,39.3,5.2,55.6,5.2,63.1c0,9.7,3,17.2,8.2,22.9c-3.5-11.9-1.2-33.4,3.2-33.4
		c5.6,0,5.6,7,5.6,22.6c0,7.4,1.3,8.8,2.6,13.7c7.3,3.4,16.2,5,25.7,5c9.9,0,19-1.7,26.5-5.3c1.3-4.9,2.6-6.3,2.6-13.7
		C79.5,59.3,79.5,52.3,85.1,52.3z"/>
	<path class="st3" d="M16.6,52.6c-4.4,0-6.8,21.4-3.2,33.4c3.1,3.4,7,0.8,11.4,2.9c-1.3-4.9-2.6-6.3-2.6-13.7
		C22.2,59.6,22.2,52.6,16.6,52.6z"/>
	<path class="st3" d="M88.6,84.9c3.2-12.1,0.9-32.6-3.4-32.6c-5.6,0-5.6,7-5.6,22.6c0,7.4-1.3,8.7-2.6,13.7
		C81.5,86.3,85.5,88.6,88.6,84.9z"/>
</g>
<path class="st3" d="M50.8,64.2c-11,0-17,5.4-17,16.6s0.1,13.4,17,13.4s16.3-2.4,16.3-13.4S61.8,64.2,50.8,64.2z"/>
<circle cx="33" cy="57.9" r="3.8"/>
<circle cx="67.1" cy="57.9" r="3.8"/>
<circle cx="50.1" cy="73.9" r="3"/>
<path class="st4" d="M44.1,81.3c0,0,6.1,0.1,6.1-4.3"/>
<path class="st4" d="M56.2,81.3c0,0-6.1,0.1-6.1-4.3"/>
<path class="st5" d="M27.5,53.9"/>
<path class="st3" d="M11.7,23.4c0-4.5,3.6-8.1,8.1-8.1c1.7,0,3.3,0.5,4.6,1.5c1.6-1.1,3.2-2.1,5-3c-5.5-3-10.4-5.1-12.7-5.1
	c-3,0-7.8-0.9-9.9,1c-2.2,2.1-1.6,7.1-1.6,10.4c0,2.3,2.1,7.4,5.1,12.9c0.9-1.7,1.9-3.3,2.9-4.9C12.2,26.8,11.7,25.2,11.7,23.4z"/>
<path class="st5" d="M27.5,53.9"/>
<path class="st3" d="M80.8,15.4c4.5,0,8.1,3.6,8.1,8.1c0,1.6-0.5,3.2-1.3,4.5c1.1,1.5,2,3.1,2.9,4.7c2.9-5.4,4.9-10.3,4.9-12.5
	c0-3.3,0.6-8.3-1.6-10.4c-2.1-1.9-6.8-1-9.9-1c-2.2,0-7.1,2.1-12.5,5c1.7,0.9,3.4,1.9,5,3C77.6,15.9,79.2,15.4,80.8,15.4z"/>
<path class="st6" d="M11.7,23.4c0,1.8,0.6,3.4,1.5,4.7c3-4.4,6.8-8.2,11.2-11.3c-1.3-0.9-2.9-1.5-4.6-1.5
	C15.3,15.3,11.7,19,11.7,23.4z"/>
<path class="st6" d="M80.8,15.4c-1.7,0-3.2,0.5-4.5,1.3c4.4,3,8.2,6.8,11.2,11.2c0.8-1.3,1.3-2.8,1.3-4.5
	C88.9,19,85.3,15.4,80.8,15.4z"/>
<path class="st3" d="M27.5,45.3c0,0,11.7,11.7,15.5,7.9c3.8-3.8-7.3-16.1-7.3-16.1l0.1,4.1l-4.2,0l-0.2,4.4L27.5,45.3z"/>
<path class="st3" d="M72.8,45.3c0,0-11.7,11.7-15.5,7.9c-3.8-3.8,7.3-16.1,7.3-16.1l-0.1,4.1l4.2,0l0.2,4.4L72.8,45.3z"/>
<path class="st7" d="M47.1,80.6c0,0-0.6,3.5,3.4,3.7s3.5-3.2,3.5-3.2s-2.5-1.3-3.2-2C50.2,78.4,47.1,80.6,47.1,80.6z"/>
<circle class="st3" cx="32.1" cy="56.4" r="0.9"/>
<circle class="st3" cx="65.5" cy="56.4" r="0.9"/>
</svg>
